<?xml version="1.0" encoding="utf-8"?>
<!-- Generator: Adobe Illustrator 26.0.2, SVG Export Plug-In . SVG Version: 6.00 Build 0)  -->
<svg version="1.1" id="Layer_1" xmlns="http://www.w3.org/2000/svg" xmlns:xlink="http://www.w3.org/1999/xlink" x="0px" y="0px"
	 viewBox="0 0 42.57 25.34" style="enable-background:new 0 0 42.57 25.34;" xml:space="preserve">
<style type="text/css">
	.st0{fill:#FFFFFF;}
	.st1{clip-path:url(#SVGID_00000172404884129976139200000011734806374775768727_);fill:#01855A;}
	.st2{clip-path:url(#SVGID_00000000212162820478278960000010068959693677278628_);fill:#FFFFFF;}
	.st3{fill:#01855A;}
	.st4{clip-path:url(#SVGID_00000104697232717587794310000016387428185766661519_);fill:#01855A;}
	.st5{clip-path:url(#SVGID_00000159430175821284103950000000897760363465302690_);fill:#01855A;}
	.st6{clip-path:url(#SVGID_00000089561007329498997880000010293492508806622624_);fill:#01855A;}
	.st7{fill:#9D9C96;}
	.st8{font-family:'BebasNeueBold';}
	.st9{font-size:4.9312px;}
</style>
<rect x="21.75" y="5.65" class="st0" width="20.25" height="15.75"/>
<rect class="st0" width="18.75" height="17.25"/>
<g>
	<defs>
		<rect id="SVGID_1_" y="2.09" width="23.25" height="23.25"/>
	</defs>
	<clipPath id="SVGID_00000121961904177497013400000017272099895120884365_">
		<use xlink:href="#SVGID_1_"  style="overflow:visible;"/>
	</clipPath>
	<path style="clip-path:url(#SVGID_00000121961904177497013400000017272099895120884365_);fill:#01855A;" d="M11.63,17.04
		c-1.83,0-3.32-1.49-3.32-3.32c0-1.84,1.49-3.32,3.32-3.32s3.32,1.49,3.32,3.32C14.95,15.55,13.46,17.04,11.63,17.04 M22.42,11.64
		h-2.17c-0.36,0-0.67-0.24-0.79-0.59c-0.12-0.34-0.25-0.67-0.41-0.99c-0.16-0.33-0.12-0.72,0.14-0.97l1.54-1.54
		c0.32-0.32,0.32-0.85,0-1.17l-1.76-1.76c-0.32-0.32-0.85-0.32-1.17,0l-1.54,1.54c-0.26,0.26-0.65,0.3-0.97,0.14
		c-0.32-0.16-0.65-0.3-0.99-0.41c-0.34-0.12-0.59-0.42-0.59-0.79V2.92c0-0.46-0.37-0.83-0.83-0.83h-2.49
		c-0.46,0-0.83,0.37-0.83,0.83v2.17c0,0.36-0.24,0.67-0.59,0.79C8.62,6,8.29,6.13,7.97,6.29C7.65,6.45,7.26,6.41,7,6.15L5.46,4.61
		c-0.32-0.32-0.85-0.32-1.17,0L2.53,6.38C2.2,6.7,2.2,7.23,2.53,7.55l1.54,1.54c0.26,0.26,0.3,0.65,0.14,0.97
		c-0.16,0.32-0.3,0.65-0.41,0.99C3.67,11.4,3.37,11.64,3,11.64H0.83C0.37,11.64,0,12.01,0,12.47v2.49c0,0.46,0.37,0.83,0.83,0.83H3
		c0.36,0,0.67,0.24,0.79,0.59c0.12,0.34,0.25,0.67,0.41,0.99c0.16,0.33,0.12,0.72-0.14,0.97l-1.54,1.54c-0.32,0.32-0.32,0.85,0,1.17
		l1.76,1.76c0.32,0.32,0.85,0.32,1.17,0L7,21.28c0.26-0.26,0.65-0.3,0.97-0.14c0.32,0.16,0.65,0.29,0.99,0.41
		c0.34,0.12,0.59,0.42,0.59,0.79v2.17c0,0.46,0.37,0.83,0.83,0.83h2.49c0.46,0,0.83-0.37,0.83-0.83v-2.17
		c0-0.36,0.24-0.67,0.59-0.79c0.34-0.12,0.67-0.25,0.99-0.41c0.33-0.16,0.72-0.12,0.97,0.14l1.54,1.54c0.32,0.32,0.85,0.32,1.17,0
		l1.76-1.76c0.32-0.32,0.32-0.85,0-1.17l-1.54-1.54c-0.26-0.26-0.3-0.65-0.14-0.97c0.16-0.32,0.3-0.65,0.41-0.99
		c0.12-0.34,0.42-0.59,0.79-0.59h2.17c0.46,0,0.83-0.37,0.83-0.83v-2.49C23.25,12.01,22.88,11.64,22.42,11.64"/>
</g>
<g>
	<defs>
		<rect id="SVGID_00000076584591145115548300000007668347301978988986_" x="7.6" y="7.97" width="30.75" height="11.25"/>
	</defs>
	<clipPath id="SVGID_00000057125866806974964040000009139101510110615168_">
		<use xlink:href="#SVGID_00000076584591145115548300000007668347301978988986_"  style="overflow:visible;"/>
	</clipPath>
	<path style="clip-path:url(#SVGID_00000057125866806974964040000009139101510110615168_);fill:#FFFFFF;" d="M36.64,19.23H9.31
		c-0.94,0-1.7-0.75-1.7-1.66V9.64c0-0.91,0.76-1.66,1.7-1.66h27.33c0.94,0,1.7,0.75,1.7,1.66v7.93
		C38.34,18.48,37.58,19.23,36.64,19.23"/>
</g>
<path class="st3" d="M7.6,10.73h4.18V9.55H7.6V10.73z M15.42,10.73h4.18V9.55h-4.18V10.73z"/>
<g>
	<defs>
		<rect id="SVGID_00000109710559635850508080000010730681637022038682_" x="7.6" y="8.79" width="12" height="9"/>
	</defs>
	<clipPath id="SVGID_00000168815955008528705990000001554617266167828099_">
		<use xlink:href="#SVGID_00000109710559635850508080000010730681637022038682_"  style="overflow:visible;"/>
	</clipPath>
	<path style="clip-path:url(#SVGID_00000168815955008528705990000001554617266167828099_);fill:#01855A;" d="M15.1,9.39v2.62
		c0,0.29-0.24,0.52-0.52,0.52h-1.95c-0.29,0-0.52-0.23-0.52-0.52V8.79h3V9.39z"/>
	<path style="clip-path:url(#SVGID_00000168815955008528705990000001554617266167828099_);fill:#01855A;" d="M13.13,12.83h0.95v0.55
		l-0.39,0.75c-0.04,0.07-0.14,0.07-0.17,0l-0.39-0.75V12.83z"/>
</g>
<g>
	<defs>
		<rect id="SVGID_00000183210320101489339320000012541038064471724478_" x="8.19" y="14.41" width="10.83" height="3.38"/>
	</defs>
	<clipPath id="SVGID_00000165220986168075935650000002291788838313824401_">
		<use xlink:href="#SVGID_00000183210320101489339320000012541038064471724478_"  style="overflow:visible;"/>
	</clipPath>
	<path style="clip-path:url(#SVGID_00000165220986168075935650000002291788838313824401_);fill:#01855A;" d="M18.78,17.78H9.15
		c-0.52,0-0.94-0.42-0.94-0.93c0-0.51,0.42-0.93,0.94-0.93h3c0.7,0,1.27-0.57,1.27-1.26c0-0.1,0.08-0.18,0.18-0.18
		c0.1,0,0.18,0.08,0.18,0.18c0,0.9-0.73,1.62-1.64,1.62h-3c-0.32,0-0.58,0.26-0.58,0.57s0.26,0.57,0.58,0.57h9.64
		c0.1,0,0.18,0.08,0.18,0.18C18.96,17.7,18.88,17.78,18.78,17.78"/>
</g>
<g>
	<defs>
		
			<rect id="SVGID_00000101065254129427221770000011912276268370475662_" x="12.74" y="14.16" transform="matrix(0.9949 -0.1008 0.1008 0.9949 -1.6097 1.7091)" width="6.75" height="5.25"/>
	</defs>
	<clipPath id="SVGID_00000145049035073079535940000017757181897704712864_">
		<use xlink:href="#SVGID_00000101065254129427221770000011912276268370475662_"  style="overflow:visible;"/>
	</clipPath>
	<path style="clip-path:url(#SVGID_00000145049035073079535940000017757181897704712864_);fill:#01855A;" d="M16.22,17.01
		c0.02,0.02,0.05,0.03,0.08,0.04l1.58,0.24c-0.23,0.09-0.42,0.23-0.57,0.42l-1.58-0.27l0.47-0.4l0.01-0.01L16.22,17.01z
		 M19.22,18.22c0.03,0.29-0.28,0.56-0.69,0.6c-0.41,0.04-0.76-0.16-0.79-0.45c-0.03-0.29,0.28-0.56,0.69-0.6
		C18.84,17.72,19.19,17.92,19.22,18.22 M17.32,18.41c0.05,0.49,0.61,0.83,1.25,0.77c0.64-0.06,1.12-0.51,1.07-1
		c-0.05-0.49-0.61-0.84-1.25-0.77C17.75,17.47,17.27,17.92,17.32,18.41 M17.76,15.95l-1.51,0.55c-0.05,0.02-0.08,0.05-0.1,0.1
		c-0.03,0.09-0.07,0.18-0.12,0.26l-0.96,0.83c-0.01,0.01-0.02,0.01-0.03,0.01l-2.08-0.42c-0.12-0.02-0.18-0.09-0.2-0.21l0-0.02
		c0-0.09,0.04-0.16,0.12-0.21c0.06-0.04,0.12-0.05,0.19-0.05l1.81,0.08c0.03,0,0.06,0,0.08-0.02l0.02-0.01l0.44-0.51
		c0.01-0.01,0.01-0.01,0.02-0.01l1.7-0.66C17.3,15.81,17.52,15.9,17.76,15.95 M14.51,15.58l0.73,0.58
		c-0.01,0.01-0.02,0.01-0.02,0.02l-0.39,0.45l-0.53-0.03l-0.71-0.79c-0.01-0.01-0.01-0.01-0.01-0.02l0-0.01
		c0-0.01,0.01-0.02,0.02-0.03l0.37-0.21C14.15,15.43,14.33,15.45,14.51,15.58 M18.87,14.77c0.03,0.29-0.28,0.56-0.69,0.6
		s-0.76-0.16-0.79-0.45c-0.03-0.29,0.28-0.56,0.69-0.6C18.49,14.27,18.84,14.48,18.87,14.77 M16.97,14.96
		c0.05,0.49,0.61,0.84,1.25,0.77c0.64-0.07,1.12-0.51,1.07-1.01c-0.05-0.49-0.61-0.83-1.25-0.77C17.4,14.02,16.92,14.47,16.97,14.96
		"/>
</g>
<text transform="matrix(1 0 0 1 21.7437 9.5364)" class="st7 st8 st9">O</text>
<text transform="matrix(1 0 0 1 23.8369 9.5364)" class="st7 st8 st9">l</text>
<text transform="matrix(1 0 0 1 25.3682 9.5364)" class="st7 st8 st9">y</text>
<text transform="matrix(1 0 0 1 27.2446 9.5364)" class="st7 st8 st9">n</text>
<text transform="matrix(1 0 0 1 29.5249 9.5364)" class="st7 st8 st9">t</text>
<text transform="matrix(1 0 0 1 31.106 9.5364)" class="st7 st8 st9">h</text>
<text transform="matrix(1 0 0 1 22.252 16.4251)" class="st3 st8 st9">I</text>
<text transform="matrix(1 0 0 1 22.6045 16.4251)" class="st3 st8 st9">n</text>
<text transform="matrix(1 0 0 1 24.8408 16.4251)" class="st3 st8 st9">s</text>
<text transform="matrix(1 0 0 1 26.729 16.4251)" class="st3 st8 st9">t</text>
<text transform="matrix(1 0 0 1 28.3711 16.4251)" class="st3 st8 st9">r</text>
<text transform="matrix(1 0 0 1 30.3633 16.4251)" class="st3 st8 st9">u</text>
<text transform="matrix(1 0 0 1 31.9736 16.4251)" class="st3 st8 st9">m</text>
<text transform="matrix(1 0 0 1 35.0679 16.4251)" class="st3 st8 st9">e</text>
<text transform="matrix(1 0 0 1 36.7373 16.4251)" class="st3 st8 st9">n</text>
<text transform="matrix(1 0 0 1 39.0176 16.4251)" class="st3 st8 st9">t</text>
<text transform="matrix(1 0 0 1 40.729 16.4251)" class="st3 st8 st9">s</text>
<text transform="matrix(1 0 0 1 21.7686 23.3143)" class="st3 st8 st9">C</text>
<text transform="matrix(1 0 0 1 23.647 23.3143)" class="st3 st8 st9">O</text>
<text transform="matrix(1 0 0 1 26.1177 23.3143)" class="st3 st8 st9">.</text>
<text transform="matrix(1 0 0 1 27.1113 23.3143)" class="st3 st8 st9"> </text>
</svg>
